<svg width="22" height="26" viewBox="0 0 22 26" fill="none" xmlns="http://www.w3.org/2000/svg">
<path d="M7.87509 3.0625C7.87509 2.4568 8.0547 1.86469 8.39121 1.36107C8.72773 0.857442 9.20602 0.464914 9.76562 0.23312C10.3252 0.00132693 10.941 -0.0593208 11.5351 0.0588465C12.1291 0.177014 12.6748 0.468688 13.1031 0.896987C13.5314 1.32529 13.8231 1.87097 13.9412 2.46504C14.0594 3.0591 13.9988 3.67487 13.767 4.23447C13.5352 4.79407 13.1426 5.27236 12.639 5.60888C12.1354 5.94539 11.5433 6.125 10.9376 6.125C10.1254 6.125 9.34641 5.80235 8.77208 5.22802C8.19775 4.65369 7.87509 3.87473 7.87509 3.0625ZM21.8313 9.24984C21.7516 8.85781 21.5375 8.50591 21.226 8.2549C20.9145 8.00389 20.5251 7.86953 20.1251 7.875H1.75009C1.35112 7.87498 0.96411 8.01129 0.653215 8.26135C0.34232 8.5114 0.126202 8.86018 0.0406795 9.24988C-0.0448431 9.63958 0.00536429 10.0468 0.182981 10.4041C0.360597 10.7613 0.654958 11.0472 1.01728 11.2142H1.02384L6.91806 13.8097L4.52056 22.9206C4.33759 23.3392 4.32555 23.8127 4.487 24.24C4.64845 24.6674 4.97059 25.0146 5.38462 25.2077C5.61603 25.3175 5.86893 25.3747 6.12509 25.375C6.45498 25.3755 6.77829 25.2827 7.05774 25.1074C7.33718 24.9321 7.56138 24.6813 7.70447 24.3841L10.9376 18.8125L14.1729 24.3906C14.3741 24.8 14.7272 25.1146 15.157 25.2674C15.5868 25.4203 16.0592 25.3993 16.4737 25.2089C16.8882 25.0186 17.2121 24.6739 17.3762 24.2483C17.5403 23.8227 17.5318 23.3499 17.3524 22.9305L14.9549 13.8195L20.8612 11.2208C21.2277 11.0574 21.5254 10.7708 21.7027 10.4107C21.8799 10.0507 21.9254 9.63996 21.8313 9.24984Z" fill="white"/>
</svg>
