<svg width="231" height="59" viewBox="0 0 231 59" fill="none" xmlns="http://www.w3.org/2000/svg">
<path d="M71.289 0L71.3784 0.00988085C71.6004 0.299449 71.4928 41.2747 71.49 45.2296C70.4005 45.2324 63.6469 45.4234 63.1609 44.974C62.828 44.1981 63.0291 42.5795 63.0885 41.6739C59.9505 44.1624 59.7357 45.0826 55.3576 45.7779C49.3162 46.7375 45.8052 45.3507 41.4463 40.9831C41.4086 40.9578 41.366 40.9252 41.3358 40.8902C38.5458 37.647 37.1904 34.2086 37.0816 30.0384C36.9434 24.734 37.8705 20.9949 41.526 17.0331C44.6297 13.6691 48.1105 12.0992 52.6962 12.0012C55.2181 11.9473 58.7257 12.832 60.7769 14.3547C61.5431 14.9234 62.4306 15.8146 63.1325 16.5043C62.9525 14.7438 62.8024 4.34949 63.1851 2.97885C63.2186 2.85869 63.2865 2.62709 63.3655 2.53576C63.9299 1.8841 70.0378 0.687757 71.289 0ZM55.1792 37.9339C58.395 37.5979 61.1801 35.5539 62.4664 32.586C63.7526 29.6182 63.3404 26.187 61.3876 23.6087C59.4349 21.0304 56.2449 19.7052 53.0412 20.1413C48.1935 20.8012 44.7719 25.2308 45.3559 30.0907C45.9399 34.9505 50.3134 38.4425 55.1792 37.9339Z" fill="white"/>
<path d="M151.156 11.917L151.173 45.1691C148.577 45.3109 145.286 45.2306 142.628 45.2274C142.571 44.12 142.604 42.826 142.605 41.7046C141.902 42.2777 141.494 42.6491 140.859 43.2984C138.139 45.3731 136.083 45.6876 132.719 46.0997C129.21 46.3717 125.809 45.0968 123.093 43.025C115.577 37.2923 114.338 25.0852 120.331 17.86C123.604 13.9139 126.634 12.4777 131.787 12.009C131.979 11.9775 132.353 11.981 132.547 11.9953C137.127 12.3329 139.604 13.2695 142.629 16.5484C142.604 16.0645 142.487 15.2959 142.655 14.8469C142.99 13.9462 149.763 12.4966 151.156 11.917ZM134.877 37.9275C138.083 37.5263 140.824 35.4326 142.057 32.4457C143.289 29.4589 142.823 26.0396 140.834 23.4931C138.846 20.9465 135.643 19.6656 132.448 20.1392C127.585 20.8602 124.207 25.3618 124.873 30.235C125.539 35.1082 129.999 38.5383 134.877 37.9275Z" fill="white"/>
<path d="M213.566 12.0101C214.386 11.9208 215.306 12.0657 216.124 12.1338C223.531 12.7241 229.538 19.1947 230.246 26.4747C230.42 28.256 230.307 30.5761 230.304 32.4037C228.966 32.4331 227.591 32.4276 226.252 32.4153C219.494 32.353 212.705 32.5138 205.952 32.4157C207.416 38.2715 214.379 39.7136 219.312 37.4687C220.089 37.1153 221.637 35.4447 222.221 35.4832C223.16 35.545 224.904 36.8555 225.837 37.3504C226.95 37.8932 229.336 38.7664 228.075 40.2773C224.94 44.0327 220.653 45.6549 215.891 46.0797C214.421 46.2109 213.064 46.0154 211.618 45.7601C203.321 44.893 197.722 38.4785 197.038 30.1922C196.698 25.6407 198.147 21.1362 201.073 17.6352C204.478 13.6204 208.549 12.4169 213.566 12.0101ZM205.982 26.0457L215.134 26.0687C217.34 26.0679 219.729 26.1104 221.919 26.0255C220.728 21.2311 217.688 19.2114 212.849 19.6596C212.633 19.6923 212.415 19.7335 212.199 19.7616C209.146 20.1589 206.131 22.8166 205.982 26.0457Z" fill="white"/>
<path d="M105.59 3.97166C105.856 3.95106 106.068 4.01254 106.258 4.18566C106.474 6.16701 106.151 10.643 106.208 12.8535C108.276 13.0794 111.371 12.9111 113.575 12.9754C113.664 15.4609 113.591 18.5795 113.595 21.1129C111.463 21.1935 108.494 21.0892 106.276 21.0894C106.093 22.3607 106.211 25.888 106.25 27.3157C106.321 29.907 106.031 33.3321 106.305 35.8083C106.54 36.1956 106.972 36.7146 107.262 37.0842C108.985 37.7533 111.639 37.5345 113.598 37.5666C113.596 40.126 113.546 42.6345 113.617 45.1979C111.836 45.2565 110.097 45.4224 108.306 45.4004C105.638 45.3465 102.223 44.6494 100.3 42.6878C97.3008 39.6283 97.7449 34.6973 97.7446 30.7946L97.7576 21.1264C96.0758 21.0218 93.8727 21.0844 92.1162 21.0511C92.3196 19.5082 92.1919 14.7065 92.187 12.9583C93.8519 12.8708 95.9783 12.9581 97.7571 12.9082L97.737 6.50161C98.8099 5.93011 100.217 5.69422 101.392 5.30786C102.795 4.84628 104.164 4.36104 105.59 3.97166Z" fill="white"/>
<path d="M86.4708 12.919C86.8149 12.8382 87.079 12.8448 87.3167 13.0926C87.4055 14.6251 87.3518 16.4963 87.3503 18.0664L87.3489 26.5946C87.3513 32.5796 87.5051 39.2853 87.3208 45.2186C84.9543 45.2608 82.4584 45.2279 80.0829 45.2298C79.7564 45.2404 79.4436 45.2831 79.1575 45.1295C78.9539 44.81 79.05 16.2858 79.0264 12.965C81.1565 12.806 84.148 13.0143 86.4708 12.919Z" fill="white"/>
<path d="M183.197 40.2745C182.436 41.0071 181.609 42.038 180.77 42.6273C174.796 46.8251 166.147 45.3804 161.272 40.1196C155.006 33.3562 155.289 22.6657 161.962 16.271C164.981 13.4241 169.004 11.8912 173.151 12.0083C176.521 12.0901 179.814 13.1788 182.163 15.6776C182.523 16.0614 182.921 16.5517 183.276 16.9082C183.167 16.1626 182.926 15.2514 183.308 14.6091C183.958 14.0668 190.78 11.9339 191.426 12.4143C191.598 13.2806 191.484 19.6139 191.483 20.8951L191.477 35.1879C191.48 39.2489 191.657 43.4979 190.935 47.5181C190.027 52.572 185.858 56.3325 181.139 57.9174C180.008 58.2968 178.689 58.3613 177.606 58.8808H171.271L171.237 58.8594C170.427 58.3594 169.313 58.2585 168.398 58.0172C165.671 57.2982 163.136 56.1522 161.262 53.9819C160.974 53.6465 158.985 51.4804 159.597 51.1401C161.527 50.0681 165.112 49.0507 167.273 48.5564C168.26 49.0512 169.032 49.8288 169.956 50.309C173.696 52.2548 180.096 51.7813 182.212 47.6523C183.209 45.709 183.045 42.4971 183.197 40.2745ZM175.821 37.2726C180.617 36.3572 183.774 31.7389 182.888 26.9347C182.002 22.1307 177.406 18.9437 172.599 19.801C167.751 20.6659 164.532 25.313 165.425 30.1584C166.319 35.0037 170.984 38.1958 175.821 37.2726Z" fill="white"/>
<path d="M0 25.7274C0.679208 24.6138 0.622824 23.361 1.18038 22.0402C3.14202 17.3143 7.23151 13.8023 12.1977 12.5785C25.3368 9.40821 34.8191 19.4684 33.1567 32.3974C30.5739 32.517 27.3036 32.4234 24.6575 32.4202L8.7858 32.424C9.43519 34.5043 10.4663 36.1832 12.5086 37.27C15.6125 38.876 19.2143 38.9246 22.3405 37.3391C22.8209 37.0955 24.6321 35.4843 24.9143 35.4931C26.0809 35.5294 29.1803 37.6773 30.3341 38.2632C30.6741 38.4358 31.0959 38.7299 31.2444 38.8709C31.8258 41.0997 25.0984 45.1388 22.9996 45.3315C21.4949 45.4698 19.7511 46.2033 18.1543 46.1103C14.7036 45.9602 11.1123 45.5452 8.08371 43.7544C4.67188 41.7367 2.07398 38.7779 0.853892 34.9698C0.608293 34.2032 0.497634 32.7086 0 32.1212V25.7274ZM8.76924 25.9725C10.8522 26.2134 15.8408 26.0735 18.0923 26.0687C19.5679 26.0704 23.5382 26.1559 24.8203 25.9603C24.0489 21.536 19.9841 19.1232 15.6603 19.6671C11.9873 20.1906 9.40214 22.1765 8.76924 25.9725Z" fill="white"/>
<path d="M88.2 5.8808C88.2 8.64222 85.9614 10.8808 83.2 10.8808C80.4386 10.8808 78.2 8.64222 78.2 5.8808C78.2 3.11937 80.4386 0.880796 83.2 0.880796C85.9614 0.880796 88.2 3.11937 88.2 5.8808Z" fill="white"/>
</svg>
